<?xml version="1.0" standalone="no"?>
<!DOCTYPE svg PUBLIC "-//W3C//DTD SVG 20010904//EN"
 "http://www.w3.org/TR/2001/REC-SVG-20010904/DTD/svg10.dtd">
<svg version="1.0" xmlns="http://www.w3.org/2000/svg"
 width="1184.000000pt" height="1184.000000pt" viewBox="0 0 1184.000000 1184.000000"
 preserveAspectRatio="xMidYMid meet">
<metadata>
Created by potrace 1.14, written by Peter Selinger 2001-2017
</metadata>
<g transform="translate(0.000000,1184.000000) scale(0.100000,-0.100000)"
fill="#000000" stroke="none">
<path d="M5610 11533 c-879 -52 -1705 -294 -2470 -726 -872 -492 -1625 -1245
-2117 -2117 -506 -898 -755 -1885 -730 -2895 13 -493 57 -818 174 -1280 206
-816 587 -1559 1139 -2220 148 -177 447 -480 629 -637 757 -654 1682 -1100
2650 -1278 324 -60 532 -80 885 -87 376 -6 621 5 895 42 1302 175 2485 789
3374 1749 167 181 239 267 376 448 330 436 589 908 778 1418 168 454 270 891
322 1380 22 203 30 711 16 948 -55 928 -353 1850 -854 2637 -235 370 -462 652
-786 975 -237 236 -381 363 -615 538 -795 595 -1777 980 -2761 1081 -248 26
-679 37 -905 24z m674 -573 c289 -15 566 -59 891 -142 1775 -450 3188 -1857
3645 -3631 118 -458 154 -763 154 -1287 0 -318 -3 -389 -22 -549 -68 -554
-179 -969 -393 -1468 -38 -89 -69 -165 -69 -167 0 -10 -223 -402 -284 -498
-207 -330 -412 -585 -711 -883 -543 -544 -1113 -909 -1847 -1184 -75 -28 -148
-51 -161 -51 -23 0 -26 5 -31 53 -5 44 -46 1178 -86 2372 -5 165 -13 382 -16
481 l-6 181 283 7 c816 20 1125 46 1414 121 293 76 524 209 678 390 120 140
125 154 368 1003 121 422 231 812 244 867 58 235 14 461 -132 683 -91 138
-302 318 -512 437 -472 266 -1695 625 -2676 784 -405 66 -582 82 -955 87 -190
3 -368 9 -397 14 -38 7 -74 24 -134 65 -174 119 -300 165 -471 173 -73 3 -141
0 -180 -8 -192 -37 -389 -165 -534 -344 -121 -151 -172 -281 -182 -465 l-7
-115 -105 -75 c-262 -189 -364 -320 -760 -976 -334 -553 -509 -794 -760 -1046
-145 -145 -246 -228 -407 -333 -317 -207 -754 -336 -1103 -324 -90 3 -95 4
-107 29 -40 83 -67 768 -44 1130 37 587 193 1191 456 1758 467 1011 1289 1864
2286 2374 492 251 1026 421 1584 503 272 40 716 54 1089 34z m-1147 -2735 c82
-40 276 -236 371 -377 85 -126 136 -173 211 -195 138 -40 291 35 337 165 7 20
13 65 14 99 0 100 1 100 231 83 728 -56 1836 -303 2609 -582 410 -148 594
-244 743 -386 37 -36 67 -69 67 -73 0 -4 -30 -11 -67 -14 -88 -9 -121 -24
-178 -76 -61 -56 -85 -106 -92 -188 -4 -54 -2 -76 15 -113 41 -93 126 -162
216 -174 72 -10 73 -12 52 -101 -41 -172 -317 -1131 -337 -1171 -34 -67 -122
-140 -227 -190 -186 -88 -437 -132 -867 -152 -274 -13 -1226 -12 -1379 0 -268
22 -496 66 -695 135 -92 31 -196 34 -256 6 -53 -24 -131 -109 -144 -157 -6
-22 -11 -68 -11 -104 0 -72 20 -124 65 -178 82 -98 437 -202 862 -253 l101
-12 6 -121 c8 -145 27 -691 61 -1686 39 -1181 47 -1461 41 -1467 -7 -8 -183
-37 -337 -57 -160 -21 -460 -36 -716 -36 -339 0 -763 54 -1133 146 -743 183
-1457 547 -2045 1043 -534 451 -966 1000 -1270 1616 -140 283 -228 502 -309
766 -26 88 -32 117 -23 126 7 7 69 17 142 23 720 62 1317 362 1833 923 245
265 442 547 805 1149 118 197 250 405 292 463 77 106 167 193 271 262 l55 36
47 -33 c141 -101 250 -168 362 -223 106 -53 133 -62 190 -65 222 -12 369 214
264 407 -34 63 -57 81 -212 165 -152 81 -195 111 -278 189 -73 68 -94 101 -94
149 0 82 118 214 227 254 51 19 111 12 180 -21z"/>
<path d="M6380 7371 c-52 -17 -89 -42 -129 -87 -114 -129 -85 -322 62 -416 47
-30 54 -31 205 -40 202 -12 512 -2 559 17 133 56 204 213 157 346 -24 66 -81
131 -142 161 -46 22 -55 23 -367 25 -176 1 -331 -1 -345 -6z"/>
</g>
</svg>
